# xmcd
#
# Track frame offsets: 
#        150
#        18445
#        59290
#        102201
#        118232
#        138879
#        178719
#        188978
#        212781
#
# Disc length: 3037 seconds
#
# Revision: 0
# Processed by: cddbd v1.5.2PL0 Copyright (c) Steve Scherf et al.
# Submitted via: ExactAudioCopy v0.95b3
#
DISCID=7f0bdb09
DTITLE=John Lennon  - Remember New York City [CD2]  FLAC
DYEAR=1900
DGENRE=
TTITLE0=Remember
TTITLE1=Remember
TTITLE2=Remember
TTITLE3=Remember
TTITLE4=Remember
TTITLE5=Remember
TTITLE6=Remember
TTITLE7=Remember
TTITLE8=Remember
EXTD=
EXTT0=
EXTT1=
EXTT2=
EXTT3=
EXTT4=
EXTT5=
EXTT6=
EXTT7=
EXTT8=
PLAYORDER=
